<?xml version="1.0" standalone="no"?>
<!DOCTYPE svg PUBLIC "-//W3C//DTD SVG 20010904//EN"
 "http://www.w3.org/TR/2001/REC-SVG-20010904/DTD/svg10.dtd">
<svg version="1.0" xmlns="http://www.w3.org/2000/svg"
 width="600.000000pt" height="600.000000pt" viewBox="0 0 600.000000 600.000000"
 preserveAspectRatio="xMidYMid meet">
<metadata>
Created by potrace 1.14, written by Peter Selinger 2001-2017
</metadata>
<g transform="translate(0.000000,600.000000) scale(0.100000,-0.100000)"
fill="#000000" stroke="none">
<path d="M1100 4750 l0 -150 235 0 235 0 0 -1525 0 -1525 -235 0 -235 0 0
-150 0 -150 940 0 940 0 0 150 0 150 -235 0 -235 0 0 665 0 665 118 0 c184 0
301 -37 390 -123 68 -66 139 -180 297 -482 80 -154 235 -448 343 -652 l197
-373 602 0 603 0 0 150 0 150 -192 0 -193 1 -195 376 c-386 745 -406 781 -519
894 -98 97 -196 151 -344 189 -76 19 -77 24 -2 35 217 31 475 130 605 233 127
101 233 269 267 422 22 100 22 337 0 436 -37 170 -113 308 -230 421 -85 82
-134 116 -244 172 -139 69 -233 99 -433 136 -151 28 -446 35 -1472 35 l-1008
0 0 -150z m1965 -179 c242 -64 399 -224 452 -461 25 -114 22 -360 -6 -464 -63
-235 -217 -386 -455 -446 -68 -17 -112 -20 -313 -20 l-233 0 0 711 0 711 238
-5 c199 -4 250 -8 317 -26z"/>
</g>
</svg>
